<svg width="11" height="10" viewBox="0 0 11 10" fill="none" xmlns="http://www.w3.org/2000/svg">
<path d="M3.40269 8.11502e-05C3.73324 0.0101339 4.0533 0.0678492 4.36339 0.173311H4.39435C4.41533 0.18328 4.43107 0.194298 4.44157 0.204267C4.55752 0.24152 4.66718 0.283494 4.77212 0.34121L4.9715 0.430406C5.0502 0.472381 5.14464 0.550559 5.19711 0.582564C5.24958 0.613521 5.3073 0.645527 5.35452 0.68173C5.93744 0.236273 6.64524 -0.00508192 7.37455 8.11502e-05C7.70563 8.11502e-05 8.03618 0.0468618 8.35047 0.152323C10.2871 0.781945 10.9849 2.90692 10.402 4.7643C10.0714 5.71345 9.53101 6.57971 8.82321 7.28751C7.81004 8.26867 6.69824 9.13964 5.50143 9.88994L5.37026 9.96917L5.23384 9.88469C4.03284 9.13964 2.91474 8.26867 1.89213 7.28226C1.18905 6.57446 0.6481 5.71345 0.312302 4.7643C-0.280592 2.90692 0.417239 0.781945 2.37484 0.141305C2.52699 0.0888366 2.68388 0.0521087 2.84128 0.031646H2.90424C3.05168 0.0101339 3.19807 8.11502e-05 3.34498 8.11502e-05H3.40269ZM8.07763 1.65817C7.86251 1.58419 7.6264 1.70014 7.5477 1.92051C7.47424 2.14088 7.58967 2.38223 7.81004 2.46041C8.14636 2.58633 8.37145 2.91741 8.37145 3.28416V3.30043C8.36148 3.42058 8.39769 3.53654 8.47114 3.62573C8.5446 3.71493 8.65478 3.76687 8.77021 3.77789C8.98533 3.77212 9.16897 3.5995 9.18471 3.37861V3.31617C9.20045 2.58109 8.755 1.91526 8.07763 1.65817Z" fill="#D2E070"/>
</svg>
